<?xml version="1.0" encoding="iso-8859-1"?>
<!-- Generator: Adobe Illustrator 19.0.0, SVG Export Plug-In . SVG Version: 6.00 Build 0)  -->
<svg version="1.1" id="Layer_1" xmlns="http://www.w3.org/2000/svg" xmlns:xlink="http://www.w3.org/1999/xlink" x="0px" y="0px"
	 viewBox="0 0 512 512" style="enable-background:new 0 0 512 512;" xml:space="preserve">
<g>
	<g>
		<path d="M434.087,445.217c5.108,0,9.559-3.476,10.799-8.43l66.783-267.13c0.013-0.053,0.018-0.108,0.03-0.162
			c0.071-0.306,0.128-0.619,0.174-0.935c0.017-0.111,0.038-0.22,0.05-0.332c0.048-0.417,0.078-0.841,0.078-1.272v-44.522
			c0-0.013-0.002-0.026-0.002-0.039c-0.001-0.337-0.019-0.672-0.051-1.007c-0.01-0.102-0.024-0.204-0.037-0.305
			c-0.028-0.226-0.061-0.452-0.103-0.676c-0.023-0.128-0.048-0.255-0.076-0.381c-0.048-0.216-0.105-0.43-0.165-0.642
			c-0.038-0.135-0.076-0.268-0.118-0.401c-0.083-0.256-0.176-0.51-0.278-0.76c-0.051-0.125-0.108-0.246-0.164-0.368
			c-0.081-0.179-0.165-0.356-0.255-0.531c-0.06-0.116-0.12-0.23-0.185-0.344c-0.111-0.198-0.23-0.392-0.354-0.583
			c-0.05-0.078-0.098-0.159-0.15-0.236c-0.18-0.264-0.373-0.522-0.578-0.771c-0.048-0.058-0.099-0.112-0.148-0.169
			c-0.163-0.19-0.331-0.377-0.506-0.558c-0.078-0.08-0.159-0.158-0.24-0.236c-0.079-0.077-0.153-0.156-0.235-0.23l-68.142-61.948
			c-16.941-15.4-38.881-23.883-61.778-23.883s-44.838,8.483-61.779,23.885l-3.194,2.904
			c-33.033-17.064-76.526-32.894-124.243-32.894c-47.878,0-95.366,16.131-137.33,46.651C20.29,91.893,2.948,114.793,2.226,115.757
			c-0.036,0.048-0.061,0.101-0.097,0.149c-0.263,0.361-0.509,0.733-0.727,1.125c-0.009,0.017-0.021,0.033-0.03,0.05
			c-0.226,0.411-0.42,0.841-0.593,1.282c-0.036,0.091-0.067,0.183-0.1,0.275c-0.134,0.366-0.247,0.741-0.342,1.124
			c-0.021,0.085-0.046,0.167-0.065,0.252c-0.099,0.447-0.175,0.905-0.219,1.37c-0.008,0.08-0.007,0.159-0.012,0.238
			C0.021,121.893,0,122.161,0,122.435v44.522c0,0.431,0.03,0.854,0.078,1.272c0.012,0.111,0.034,0.22,0.05,0.332
			c0.046,0.316,0.101,0.628,0.174,0.935c0.012,0.053,0.017,0.109,0.03,0.163l66.783,267.13c1.24,4.953,5.691,8.429,10.799,8.429
			h12.25c1.675,8.221,5.169,15.786,10.041,22.261H11.13c-6.147,0-11.13,4.984-11.13,11.13s4.983,11.13,11.13,11.13H500.87
			c6.147,0,11.13-4.984,11.13-11.13s-4.983-11.13-11.13-11.13h-89.074c4.872-6.475,8.366-14.04,10.041-22.261H434.087z
			 M425.239,68.723l46.84,42.582h-78.053c-0.077-0.071-0.164-0.151-0.244-0.226c-0.006-0.004-0.011-0.01-0.016-0.014
			c-5.994-5.559-19.05-17.052-37.593-30.015c-0.012-0.009-0.024-0.018-0.038-0.026c-2.852-1.993-5.831-4.02-8.937-6.066
			c-0.269-0.177-0.542-0.355-0.813-0.533c-0.687-0.45-1.378-0.9-2.076-1.351c-0.412-0.266-0.825-0.532-1.24-0.798
			c-0.548-0.351-1.099-0.701-1.653-1.053c-0.515-0.327-1.03-0.653-1.552-0.981c-0.37-0.232-0.743-0.463-1.115-0.695
			c-0.594-0.371-1.183-0.741-1.785-1.112c-0.964-0.593-1.949-1.191-2.943-1.79C360.671,44.486,399.342,45.177,425.239,68.723z
			 M65.577,86.482c38.521-27.843,80.12-41.961,123.64-41.961c47.494,0,90.867,17.461,122.202,34.775
			c0.501,0.278,1.003,0.555,1.5,0.834c0.521,0.292,1.037,0.583,1.553,0.874c18.321,10.399,33.707,21.359,45.113,30.3H36.216
			C43.641,103.993,53.507,95.206,65.577,86.482z M144.696,467.478c-18.412,0-33.391-14.979-33.391-33.391
			c0-18.412,14.979-33.391,33.391-33.391c18.412,0,33.391,14.979,33.391,33.391C178.087,452.499,163.108,467.478,144.696,467.478z
			 M189.187,467.478c4.871-6.475,8.366-14.04,10.041-22.261h113.544c1.675,8.221,5.169,15.786,10.041,22.261H189.187z
			 M367.304,467.478c-18.412,0-33.391-14.979-33.391-33.391c0-18.412,14.979-33.391,33.391-33.391
			c18.412,0,33.391,14.979,33.391,33.391C400.696,452.499,385.716,467.478,367.304,467.478z M421.75,422.568
			c-0.155-0.733-0.322-1.464-0.505-2.186c-0.075-0.295-0.16-0.584-0.239-0.877c-0.147-0.541-0.297-1.081-0.46-1.615
			c-0.1-0.329-0.209-0.657-0.315-0.984c-0.16-0.493-0.325-0.983-0.499-1.469c-0.12-0.336-0.244-0.669-0.37-1.001
			c-0.179-0.473-0.365-0.943-0.557-1.41c-0.136-0.329-0.272-0.659-0.413-0.985c-0.204-0.47-0.417-0.935-0.633-1.398
			c-0.145-0.309-0.286-0.62-0.435-0.927c-0.245-0.5-0.502-0.993-0.761-1.484c-0.136-0.258-0.266-0.521-0.406-0.777
			c-0.401-0.732-0.815-1.456-1.248-2.167c-0.089-0.147-0.186-0.288-0.276-0.434c-0.354-0.57-0.712-1.136-1.086-1.692
			c-0.181-0.269-0.371-0.533-0.557-0.799c-0.296-0.424-0.592-0.848-0.899-1.263c-0.213-0.288-0.432-0.57-0.649-0.853
			c-0.296-0.385-0.594-0.768-0.9-1.145c-0.232-0.286-0.466-0.568-0.703-0.848c-0.308-0.365-0.621-0.727-0.939-1.084
			c-0.244-0.275-0.489-0.548-0.738-0.817c-0.331-0.358-0.669-0.709-1.01-1.059c-0.246-0.254-0.491-0.509-0.742-0.757
			c-0.376-0.372-0.761-0.734-1.149-1.095c-0.227-0.211-0.449-0.429-0.679-0.637c-0.604-0.545-1.219-1.081-1.846-1.601
			c-0.132-0.11-0.271-0.214-0.404-0.322c-0.526-0.427-1.057-0.849-1.599-1.258c-0.255-0.193-0.518-0.375-0.776-0.563
			c-0.423-0.307-0.847-0.614-1.279-0.91c-0.291-0.199-0.585-0.391-0.88-0.584c-0.413-0.272-0.827-0.54-1.248-0.8
			c-0.307-0.19-0.618-0.377-0.928-0.562c-0.422-0.25-0.847-0.495-1.276-0.734c-0.315-0.176-0.629-0.349-0.947-0.52
			c-0.444-0.237-0.895-0.465-1.346-0.69c-0.308-0.154-0.616-0.31-0.928-0.459c-0.5-0.237-1.006-0.463-1.514-0.686
			c-0.272-0.119-0.539-0.245-0.813-0.359c-0.779-0.327-1.566-0.641-2.363-0.934c-0.075-0.027-0.15-0.05-0.225-0.077
			c-0.73-0.265-1.467-0.515-2.211-0.749c-0.284-0.089-0.572-0.168-0.858-0.254c-0.541-0.161-1.084-0.319-1.632-0.464
			c-0.329-0.087-0.662-0.166-0.995-0.247c-0.514-0.126-1.03-0.247-1.548-0.358c-0.347-0.075-0.697-0.144-1.047-0.211
			c-0.515-0.1-1.033-0.193-1.554-0.278c-0.352-0.058-0.705-0.115-1.06-0.166c-0.535-0.078-1.074-0.144-1.614-0.206
			c-0.342-0.039-0.681-0.081-1.025-0.115c-0.593-0.057-1.192-0.098-1.791-0.137c-0.293-0.019-0.583-0.045-0.876-0.058
			c-0.892-0.044-1.79-0.069-2.695-0.069c-0.905,0-1.803,0.026-2.697,0.069c-0.294,0.014-0.584,0.04-0.876,0.058
			c-0.599,0.038-1.197,0.08-1.791,0.137c-0.343,0.033-0.683,0.075-1.025,0.115c-0.54,0.062-1.078,0.128-1.614,0.206
			c-0.354,0.051-0.707,0.108-1.06,0.166c-0.521,0.086-1.038,0.178-1.554,0.278c-0.351,0.068-0.699,0.137-1.047,0.211
			c-0.52,0.111-1.035,0.233-1.548,0.358c-0.332,0.081-0.664,0.16-0.995,0.247c-0.548,0.145-1.091,0.303-1.632,0.464
			c-0.286,0.085-0.574,0.164-0.858,0.254c-0.743,0.235-1.48,0.485-2.21,0.749c-0.075,0.027-0.15,0.05-0.225,0.077
			c-0.797,0.293-1.584,0.605-2.363,0.934c-0.274,0.115-0.541,0.24-0.813,0.36c-0.508,0.223-1.014,0.447-1.514,0.686
			c-0.312,0.148-0.619,0.305-0.928,0.459c-0.452,0.226-0.902,0.453-1.346,0.69c-0.318,0.17-0.633,0.344-0.947,0.52
			c-0.429,0.239-0.854,0.484-1.276,0.733c-0.312,0.185-0.621,0.371-0.928,0.562c-0.42,0.26-0.835,0.529-1.248,0.8
			c-0.294,0.194-0.59,0.385-0.88,0.584c-0.432,0.296-0.856,0.602-1.279,0.91c-0.258,0.188-0.521,0.371-0.776,0.563
			c-0.542,0.409-1.073,0.83-1.599,1.258c-0.134,0.108-0.272,0.213-0.404,0.322c-0.628,0.52-1.242,1.054-1.847,1.601
			c-0.23,0.208-0.452,0.425-0.679,0.637c-0.386,0.361-0.772,0.724-1.149,1.095c-0.252,0.248-0.495,0.503-0.742,0.757
			c-0.341,0.349-0.678,0.7-1.01,1.058c-0.249,0.269-0.494,0.543-0.738,0.817c-0.317,0.357-0.631,0.719-0.939,1.084
			c-0.237,0.281-0.472,0.563-0.703,0.848c-0.306,0.377-0.604,0.76-0.9,1.145c-0.218,0.284-0.436,0.565-0.649,0.853
			c-0.307,0.416-0.603,0.839-0.899,1.263c-0.186,0.266-0.376,0.529-0.557,0.799c-0.373,0.557-0.732,1.122-1.086,1.692
			c-0.09,0.146-0.187,0.287-0.276,0.434c-0.432,0.711-0.847,1.435-1.248,2.167c-0.14,0.256-0.271,0.519-0.406,0.777
			c-0.259,0.492-0.516,0.984-0.761,1.484c-0.15,0.306-0.292,0.618-0.435,0.927c-0.216,0.463-0.43,0.928-0.633,1.398
			c-0.141,0.326-0.277,0.656-0.413,0.985c-0.191,0.468-0.377,0.937-0.557,1.41c-0.126,0.333-0.249,0.666-0.37,1.001
			c-0.174,0.486-0.338,0.977-0.499,1.469c-0.107,0.327-0.215,0.653-0.315,0.984c-0.163,0.534-0.313,1.074-0.46,1.615
			c-0.079,0.293-0.165,0.582-0.239,0.877c-0.184,0.722-0.351,1.453-0.505,2.186c-0.024,0.117-0.055,0.232-0.079,0.347
			c-0.003,0.013-0.007,0.027-0.009,0.041H199.23c-0.003-0.013-0.007-0.027-0.009-0.041c-0.023-0.117-0.055-0.232-0.079-0.347
			c-0.155-0.734-0.322-1.464-0.505-2.186c-0.075-0.295-0.16-0.584-0.239-0.877c-0.147-0.541-0.297-1.081-0.46-1.615
			c-0.1-0.329-0.209-0.657-0.315-0.984c-0.16-0.493-0.325-0.983-0.499-1.469c-0.12-0.336-0.244-0.669-0.37-1.001
			c-0.179-0.473-0.365-0.943-0.557-1.41c-0.136-0.329-0.272-0.659-0.413-0.985c-0.204-0.47-0.417-0.935-0.633-1.398
			c-0.145-0.309-0.286-0.62-0.435-0.927c-0.245-0.5-0.502-0.993-0.761-1.484c-0.136-0.258-0.266-0.521-0.406-0.777
			c-0.401-0.732-0.815-1.456-1.248-2.167c-0.089-0.147-0.186-0.288-0.276-0.434c-0.354-0.57-0.712-1.136-1.086-1.692
			c-0.181-0.269-0.371-0.533-0.557-0.799c-0.296-0.424-0.592-0.848-0.899-1.263c-0.213-0.288-0.432-0.57-0.649-0.853
			c-0.296-0.385-0.594-0.768-0.9-1.145c-0.232-0.286-0.466-0.568-0.703-0.848c-0.308-0.365-0.621-0.727-0.939-1.084
			c-0.244-0.275-0.489-0.548-0.738-0.817c-0.331-0.358-0.669-0.709-1.01-1.058c-0.246-0.254-0.491-0.509-0.742-0.757
			c-0.376-0.372-0.761-0.734-1.149-1.095c-0.227-0.211-0.449-0.429-0.679-0.637c-0.604-0.545-1.219-1.081-1.846-1.601
			c-0.132-0.11-0.271-0.214-0.404-0.322c-0.526-0.427-1.057-0.849-1.599-1.258c-0.255-0.193-0.518-0.375-0.776-0.563
			c-0.423-0.307-0.847-0.614-1.279-0.91c-0.291-0.199-0.586-0.391-0.88-0.584c-0.413-0.272-0.827-0.54-1.248-0.8
			c-0.307-0.19-0.618-0.377-0.928-0.562c-0.422-0.25-0.847-0.495-1.276-0.733c-0.315-0.176-0.629-0.349-0.947-0.52
			c-0.444-0.237-0.895-0.465-1.346-0.69c-0.308-0.154-0.615-0.311-0.928-0.459c-0.5-0.237-1.006-0.463-1.514-0.686
			c-0.272-0.119-0.539-0.245-0.813-0.36c-0.779-0.327-1.566-0.641-2.363-0.934c-0.075-0.027-0.15-0.05-0.225-0.077
			c-0.73-0.265-1.467-0.515-2.21-0.749c-0.284-0.089-0.572-0.168-0.858-0.254c-0.541-0.161-1.084-0.319-1.632-0.464
			c-0.329-0.087-0.662-0.166-0.995-0.247c-0.514-0.126-1.03-0.247-1.548-0.358c-0.347-0.075-0.697-0.144-1.047-0.211
			c-0.515-0.1-1.033-0.193-1.554-0.278c-0.352-0.058-0.705-0.115-1.06-0.166c-0.535-0.078-1.074-0.144-1.614-0.206
			c-0.342-0.039-0.681-0.081-1.025-0.115c-0.593-0.057-1.192-0.098-1.791-0.137c-0.293-0.019-0.583-0.045-0.876-0.058
			c-0.893-0.043-1.791-0.069-2.696-0.069s-1.803,0.026-2.697,0.069c-0.294,0.014-0.584,0.04-0.876,0.058
			c-0.599,0.038-1.197,0.08-1.791,0.137c-0.343,0.033-0.683,0.075-1.025,0.115c-0.54,0.062-1.079,0.128-1.614,0.206
			c-0.354,0.051-0.707,0.108-1.06,0.166c-0.521,0.086-1.038,0.178-1.554,0.278c-0.351,0.068-0.699,0.137-1.047,0.211
			c-0.52,0.111-1.035,0.233-1.548,0.358c-0.332,0.081-0.664,0.16-0.995,0.247c-0.548,0.145-1.091,0.303-1.632,0.464
			c-0.286,0.085-0.574,0.164-0.858,0.254c-0.744,0.235-1.48,0.485-2.211,0.749c-0.075,0.027-0.15,0.05-0.225,0.077
			c-0.797,0.293-1.584,0.605-2.363,0.934c-0.274,0.115-0.541,0.24-0.813,0.36c-0.508,0.223-1.014,0.447-1.514,0.686
			c-0.312,0.148-0.619,0.305-0.928,0.459c-0.452,0.226-0.902,0.453-1.346,0.69c-0.318,0.17-0.633,0.344-0.947,0.52
			c-0.429,0.239-0.854,0.484-1.276,0.733c-0.312,0.185-0.621,0.371-0.928,0.562c-0.42,0.26-0.835,0.529-1.248,0.8
			c-0.294,0.194-0.59,0.385-0.88,0.584c-0.432,0.296-0.856,0.602-1.279,0.91c-0.258,0.188-0.521,0.371-0.776,0.563
			c-0.542,0.409-1.073,0.83-1.599,1.258c-0.134,0.108-0.272,0.213-0.404,0.322c-0.628,0.52-1.242,1.054-1.846,1.601
			c-0.23,0.208-0.452,0.425-0.679,0.637c-0.386,0.361-0.772,0.724-1.149,1.095c-0.252,0.248-0.495,0.503-0.742,0.757
			c-0.341,0.349-0.678,0.7-1.01,1.058c-0.249,0.269-0.494,0.543-0.738,0.817c-0.317,0.357-0.631,0.719-0.939,1.084
			c-0.237,0.281-0.472,0.563-0.703,0.848c-0.306,0.377-0.604,0.76-0.9,1.145c-0.218,0.284-0.436,0.565-0.649,0.853
			c-0.307,0.416-0.603,0.839-0.899,1.263c-0.186,0.266-0.376,0.529-0.557,0.799c-0.373,0.557-0.732,1.122-1.086,1.692
			c-0.09,0.146-0.187,0.287-0.276,0.434c-0.432,0.711-0.847,1.435-1.248,2.167c-0.14,0.256-0.27,0.519-0.406,0.777
			c-0.259,0.492-0.516,0.984-0.761,1.484c-0.15,0.306-0.292,0.618-0.435,0.927c-0.216,0.463-0.43,0.928-0.633,1.398
			c-0.141,0.326-0.277,0.656-0.413,0.985c-0.191,0.468-0.377,0.937-0.557,1.41c-0.126,0.333-0.249,0.666-0.37,1.001
			c-0.174,0.486-0.338,0.977-0.499,1.469c-0.107,0.327-0.215,0.653-0.315,0.984c-0.162,0.534-0.313,1.074-0.46,1.615
			c-0.079,0.293-0.165,0.582-0.239,0.877c-0.184,0.722-0.351,1.453-0.505,2.186c-0.024,0.117-0.055,0.232-0.079,0.347
			c-0.003,0.013-0.007,0.027-0.009,0.041h-3.558L36.517,222.609h52.527c6.147,0,11.13-4.984,11.13-11.13s-4.983-11.13-11.13-11.13
			H30.952l-5.565-22.261h364.179c6.147,0,11.13-4.984,11.13-11.13s-4.983-11.13-11.13-11.13H22.261v-22.261h367.304h100.174v22.261
			h-33.391c-6.147,0-11.13,4.984-11.13,11.13s4.983,11.13,11.13,11.13h30.266l-61.217,244.87h-3.558
			c-0.003-0.013-0.007-0.027-0.009-0.041C421.806,422.798,421.774,422.684,421.75,422.568z"/>
	</g>
</g>
<g>
	<g>
		<path d="M430.826,159.087c-2.07-2.07-4.942-3.261-7.869-3.261s-5.799,1.19-7.869,3.261c-2.07,2.07-3.261,4.942-3.261,7.869
			s1.191,5.799,3.261,7.868c2.07,2.071,4.942,3.262,7.869,3.262s5.799-1.191,7.869-3.262c2.07-2.069,3.261-4.941,3.261-7.868
			S432.896,161.158,430.826,159.087z"/>
	</g>
</g>
<g>
	<g>
		<path d="M130.304,203.609c-2.07-2.07-4.942-3.261-7.869-3.261s-5.799,1.19-7.869,3.261c-2.07,2.07-3.261,4.942-3.261,7.869
			s1.191,5.799,3.261,7.868c2.07,2.071,4.942,3.262,7.869,3.262s5.799-1.191,7.869-3.262c2.07-2.069,3.261-4.941,3.261-7.868
			S132.374,205.679,130.304,203.609z"/>
	</g>
</g>
<g>
</g>
<g>
</g>
<g>
</g>
<g>
</g>
<g>
</g>
<g>
</g>
<g>
</g>
<g>
</g>
<g>
</g>
<g>
</g>
<g>
</g>
<g>
</g>
<g>
</g>
<g>
</g>
<g>
</g>
</svg>
